<svg xmlns="http://www.w3.org/2000/svg" xmlns:xlink="http://www.w3.org/1999/xlink" viewBox="0 0 172 63"><defs><style>.a{fill:#8a3dff;}.b,.c{fill:#fff;}.c{font-size:25px;font-family:NotoSans-Bold, Noto Sans;font-weight:700;}.d{filter:url(#a);}</style><filter id="a" x="32" y="0" width="101" height="52" filterUnits="userSpaceOnUse"><feOffset dx="2" dy="3" input="SourceAlpha"/><feGaussianBlur stdDeviation="3" result="b"/><feFlood flood-color="#6767f1" flood-opacity="0.349"/><feComposite operator="in" in2="b"/><feComposite in="SourceGraphic"/></filter></defs><g transform="translate(-398 -374)"><rect class="a" width="172" height="60" rx="5" transform="translate(398 377)"/><g transform="translate(31 -18)"><path class="b" d="M48.1,58.194c.184-.861,1.1-1.54,2.423-4.958a36.171,36.171,0,0,0,1.417-6.085c.552-2.728.611-5.955.792-7.279h-3.5C47.785,47.044,45.3,57.431,37.689,57.431c-4.34,0-10.959-2.218-13.821-5.049L20.756,55.3C24.75,59.29,31.309,61.04,37.379,61.04a46.719,46.719,0,0,0,8.37-.706L56.005,73.251l2.369-2.293Z" transform="translate(441.767 378.96)"/><g class="d" transform="matrix(1, 0, 0, 1, 367, 392)"><text class="c" transform="translate(39 33)"><tspan x="0" y="0">Briefly</tspan></text></g></g></g></svg>