<svg xmlns="http://www.w3.org/2000/svg" viewBox="0 0 119 137.28"><defs><style>.a,.b{fill:#007bff;}.b{font-size:36px;font-family:NotoSans-Bold, Noto Sans;font-weight:700;}</style></defs><g transform="translate(-141 -313)"><g transform="translate(-191 -33.995)"><path class="a" d="M46.45-25.68c8.4,0,16.018,1.565,21.56,7.046l-9.676,10.9L86.7-8.4V-37L76.6-27.221a24.6,24.6,0,0,0-11.426-6.213A86.957,86.957,0,0,0,52.54-35.1c-1.556-.1-2.366-.127-3.644-.138-1.332-.025-1.885,0-3.761,0-21.5,0-33.948,11.426-36.933,32.072h8.4C19.408-17.05,31.711-25.68,46.45-25.68Zm28.3,96.008c.966-4.532,11.39-18.809,12.364-25.935H78.185c-2.8,13.886-10.5,24.057-25.239,24.057-8.4,0-20.622-3.106-26.164-8.588L38.4,49.4,5.708,46.328l1.623,30.3L20.756,65.506c7.735,7.735,20.435,11.123,32.19,11.123a90.47,90.47,0,0,0,16.208-1.367l19.862,25.013L93.6,95.834,74.746,70.328Z" transform="translate(343.349 384)"/><text class="b" transform="translate(332 414.995)"><tspan x="0" y="0">Briefly</tspan></text></g></g></svg>